<svg xmlns="http://www.w3.org/2000/svg" xmlns:xlink="http://www.w3.org/1999/xlink" width="250" zoomAndPan="magnify" viewBox="0 0 187.5 74.999997" height="100" preserveAspectRatio="xMidYMid meet" version="1.0"><defs><clipPath id="4b4e7aa9ad"><path d="M 28.089844 2.488281 L 155.378906 2.488281 L 155.378906 72.511719 L 28.089844 72.511719 Z M 28.089844 2.488281 " clip-rule="nonzero"/></clipPath><clipPath id="b5cdb511d4"><path d="M 51.957031 39.179688 C 52.511719 39.179688 53.136719 39.179688 53.136719 41.558594 C 53.136719 45.929688 50.410156 51.492188 45.914062 56.460938 C 45.890625 55.988281 45.871094 55.496094 45.871094 54.976562 C 45.871094 45.964844 49.570312 39.175781 51.957031 39.175781 M 75.074219 41.550781 C 75.074219 45.925781 72.347656 51.484375 67.851562 56.453125 C 67.828125 55.980469 67.8125 55.492188 67.8125 54.972656 C 67.8125 45.957031 71.503906 39.167969 73.898438 39.167969 C 74.449219 39.167969 75.074219 39.167969 75.074219 41.546875 M 95.835938 39.167969 C 96.390625 39.167969 97.015625 39.167969 97.015625 41.546875 C 97.015625 45.917969 94.289062 51.480469 89.792969 56.449219 C 89.769531 55.976562 89.753906 55.484375 89.753906 54.96875 C 89.753906 45.953125 93.441406 39.164062 95.835938 39.164062 M 119.855469 15.492188 C 119.855469 24.121094 117.457031 33.660156 114.722656 41.085938 C 114.707031 40.3125 114.699219 39.527344 114.699219 38.734375 C 114.699219 17.480469 117.8125 9.65625 119.015625 9.035156 C 119.21875 9.300781 119.863281 10.539062 119.863281 15.492188 M 146.625 39.902344 C 144.804688 51.652344 137.941406 65.125 136 65.941406 C 135.046875 65.542969 132.929688 60.847656 132.929688 54.460938 C 132.929688 44.402344 136.144531 38.15625 141.316406 38.15625 C 143.355469 38.15625 145.09375 38.730469 146.617188 39.894531 M 153.835938 65.902344 C 153.453125 65.632812 152.5625 64.183594 152.5625 56.664062 C 152.5625 52.769531 152.824219 47.390625 153.183594 39.945312 L 153.285156 37.84375 L 152.996094 37.507812 C 151.894531 36.1875 147.78125 31.894531 141.316406 31.894531 C 132.28125 31.894531 126.664062 40.542969 126.664062 54.460938 C 126.664062 55.1875 126.664062 55.929688 126.734375 56.628906 C 124.277344 63.214844 121.585938 65.953125 120.679688 65.953125 C 119.050781 65.953125 116.886719 62.742188 115.636719 53.777344 C 122.105469 42.1875 126.109375 27.78125 126.109375 16.089844 C 126.109375 10.359375 125.382812 2.738281 119.074219 2.738281 C 111.910156 2.738281 108.429688 14.378906 108.429688 38.328125 C 108.429688 44.042969 108.648438 48.78125 109.09375 52.796875 C 105.015625 59.390625 98.941406 65.953125 95.03125 65.953125 C 93.578125 65.953125 92.394531 65.140625 91.511719 63.542969 C 98.785156 56.882812 103.273438 48.511719 103.273438 41.535156 C 103.273438 36.203125 100.421875 32.890625 95.835938 32.890625 C 88.914062 32.890625 83.488281 42.582031 83.488281 54.957031 C 83.488281 57.253906 83.71875 59.503906 84.152344 61.515625 C 80.285156 64.382812 76.375 65.953125 73.097656 65.953125 C 71.644531 65.953125 70.464844 65.140625 69.574219 63.542969 C 76.851562 56.90625 81.339844 48.53125 81.339844 41.558594 C 81.339844 36.226562 78.488281 32.914062 73.902344 32.914062 C 66.980469 32.914062 61.554688 42.605469 61.554688 54.976562 C 61.554688 57.277344 61.785156 59.523438 62.21875 61.535156 C 58.347656 64.40625 54.441406 65.976562 51.164062 65.976562 C 49.710938 65.976562 48.527344 65.164062 47.640625 63.566406 C 54.910156 56.90625 59.402344 48.53125 59.402344 41.558594 C 59.402344 36.226562 56.550781 32.914062 51.964844 32.914062 C 45.039062 32.914062 39.613281 42.605469 39.613281 54.976562 C 39.613281 57.277344 39.84375 59.523438 40.277344 61.535156 C 37.039062 63.9375 33.6875 65.464844 30.765625 65.863281 C 29.242188 66.078125 28.089844 67.386719 28.089844 68.90625 L 28.089844 69.035156 C 28.089844 69.921875 28.472656 70.765625 29.144531 71.351562 C 29.816406 71.9375 30.695312 72.195312 31.574219 72.074219 C 35.117188 71.578125 38.941406 70.011719 42.699219 67.507812 C 44.519531 70.230469 47.066406 71.847656 50.03125 72.175781 L 50.03125 72.242188 L 52.289062 72.242188 L 52.289062 72.183594 C 56.136719 71.914062 60.449219 70.292969 64.640625 67.507812 C 66.460938 70.230469 69.007812 71.847656 71.976562 72.175781 L 71.976562 72.242188 L 74.230469 72.242188 L 74.230469 72.183594 C 78.082031 71.914062 82.386719 70.292969 86.582031 67.507812 C 88.398438 70.230469 90.945312 71.847656 93.910156 72.175781 L 93.910156 72.242188 L 96.164062 72.242188 L 96.164062 72.167969 C 100.789062 71.640625 105.871094 67.902344 110.734375 61.453125 C 112.503906 68.023438 115.460938 71.605469 119.550781 72.15625 L 119.550781 72.242188 L 121.804688 72.242188 L 121.804688 72.140625 C 124.429688 71.679688 126.921875 69.632812 128.835938 66.394531 C 130.539062 70.183594 132.996094 72.242188 135.910156 72.242188 C 140.667969 72.242188 144.144531 66.457031 146.386719 60.90625 C 146.726562 66.445312 148.078125 69.785156 150.5625 71.316406 C 151.492188 71.890625 152.625 71.910156 153.59375 71.375 C 154.570312 70.828125 155.171875 69.800781 155.171875 68.691406 L 155.171875 68.445312 C 155.171875 67.457031 154.675781 66.515625 153.84375 65.925781 " clip-rule="nonzero"/></clipPath></defs><g clip-path="url(#4b4e7aa9ad)"><g clip-path="url(#b5cdb511d4)"><path fill="#ffffff" d="M 28.089844 2.761719 L 155.109375 2.761719 L 155.109375 72.238281 L 28.089844 72.238281 Z M 28.089844 2.761719 " fill-opacity="1" fill-rule="nonzero"/></g></g></svg>